<?xml version="1.0" standalone="no"?><!DOCTYPE svg PUBLIC "-//W3C//DTD SVG 1.1//EN" "http://www.w3.org/Graphics/SVG/1.1/DTD/svg11.dtd"><svg t="1643165270036" class="icon" viewBox="0 0 1024 1024" version="1.1" xmlns="http://www.w3.org/2000/svg" p-id="3166" xmlns:xlink="http://www.w3.org/1999/xlink" width="200" height="200"><defs><style type="text/css"></style></defs><path d="M891.733333 891.733333h-311.466666l337.066666-337.066666c55.466667-55.466667 55.466667-145.066667 0-200.533334l-260.266666-260.266666C605.866667 42.666667 512 42.666667 456.533333 93.866667l-379.733333 379.733333c-25.6 25.6-42.666667 64-42.666667 98.133333 0 38.4 12.8 72.533333 42.666667 98.133334l260.266667 260.266666c25.6 25.6 64 42.666667 98.133333 42.666667h456.533333c25.6 0 42.666667-17.066667 42.666667-42.666667s-17.066667-38.4-42.666667-38.4zM520.533333 162.133333c8.533333-8.533333 21.333333-12.8 34.133334-12.8 12.8 0 25.6 4.266667 34.133333 12.8l260.266667 260.266667c17.066667 17.066667 17.066667 46.933333 0 68.266667l-264.533334 264.533333L256 426.666667l264.533333-264.533334zM140.8 610.133333c-8.533333-8.533333-12.8-21.333333-12.8-34.133333 0-12.8 4.266667-25.6 12.8-34.133333l55.466667-55.466667 324.266666 324.266667-51.2 59.733333c-17.066667 17.066667-46.933333 17.066667-68.266666 0l-260.266667-260.266667z" p-id="3167" fill="#fff"></path></svg>