<?xml version="1.0" standalone="no"?><!DOCTYPE svg PUBLIC "-//W3C//DTD SVG 1.1//EN" "http://www.w3.org/Graphics/SVG/1.1/DTD/svg11.dtd"><svg t="1642581387871" class="icon" viewBox="0 0 1024 1024" version="1.1" xmlns="http://www.w3.org/2000/svg" p-id="8658" xmlns:xlink="http://www.w3.org/1999/xlink" width="200" height="200"><defs><style type="text/css"></style></defs><path d="M509.44 297.02656S317.39392 392.3712 317.39392 476.33408s42.3424 189.7216 192.73728 245.51936c58.05568-38.2208 191.39584-95.45728 191.39584-237.89056C701.52192 356.75136 509.44 297.02656 509.44 297.02656z" fill="#64F4AF" p-id="8659"></path><path d="M421.888 738.66752c-128.57344-75.83744-154.91584-174.84288-154.368-244.55168a181.1456 181.1456 0 0 1 4.25472-36.79232H651.776V389.41184H301.24032c1.57184-2.27328 3.072-4.608 4.74624-6.80448 84.48-111.34464 250.95168-183.43424 386.56-233.79968l-23.60832-63.66208c-53.79072 19.968-112.24064 43.29984-169.32352 71.168C429.19936 134.272 373.1456 109.24544 333.03552 81.92l-38.14912 56.14592a604.544 604.544 0 0 0 123.65824 62.03392C353.43872 239.1296 294.45632 285.55264 251.9808 341.504A256.73216 256.73216 0 0 0 199.68 493.568c-0.5632 71.68 23.08608 206.45888 187.76064 303.616z m209.55136-533.98016L596.992 263.20384c128.57344 75.8272 154.91584 174.83776 154.37312 244.54656a181.0176 181.0176 0 0 1-4.2496 36.79744H367.104v67.90656h350.53568c-1.57184 2.2784-3.072 4.608-4.75136 6.81472-65.46944 86.29248-203.63264 168.63744-410.624 244.736l23.37792 63.744a1884.78464 1884.78464 0 0 0 189.00992-80.38912c73.41568 23.19872 136.54528 69.18144 167.80288 94.72l42.86464-52.62848a655.22176 655.22176 0 0 0-132.7872-84.31104c77.91616-46.20288 136.25856-94.57664 174.35648-144.78848A256.7168 256.7168 0 0 0 819.2 508.27776c0.5632-71.69536-23.09632-206.464-187.76064-303.5904z" fill="#409eff" p-id="8660"></path></svg>